<svg width="28" height="28" viewBox="0 0 28 28" fill="none" xmlns="http://www.w3.org/2000/svg">
<path d="M13.9541 2.4541C17.0041 2.4541 19.9293 3.6656 22.0859 5.82227C24.2426 7.97893 25.4541 10.9041 25.4541 13.9541C25.4541 15.4641 25.1569 16.9594 24.5791 18.3545C24.0012 19.7497 23.1538 21.0181 22.0859 22.0859C21.0181 23.1538 19.7497 24.0012 18.3545 24.5791C16.9594 25.1569 15.4641 25.4541 13.9541 25.4541C12.4441 25.4541 10.9488 25.1569 9.55371 24.5791C8.15847 24.0012 6.89014 23.1538 5.82227 22.0859C4.75439 21.0181 3.90703 19.7497 3.3291 18.3545C2.75132 16.9594 2.4541 15.4641 2.4541 13.9541C2.4541 10.9041 3.6656 7.97893 5.82227 5.82227C7.97893 3.6656 10.9041 2.4541 13.9541 2.4541Z" stroke="#0A0836" stroke-width="2" stroke-linecap="round" stroke-linejoin="round"/>
<path d="M14.8789 18.6866V9.3125L11.6565 11.656" stroke="#0A0836" stroke-width="1.5" stroke-linecap="round" stroke-linejoin="round"/>
</svg>
