<svg width="28" height="28" viewBox="0 0 28 28" fill="none" xmlns="http://www.w3.org/2000/svg">
<path d="M14 2.27344C17.1101 2.27344 20.0928 3.50885 22.292 5.70801C24.4912 7.90716 25.7266 10.8899 25.7266 14C25.7266 15.5399 25.4232 17.0646 24.834 18.4873C24.2447 19.91 23.3809 21.2031 22.292 22.292C21.2031 23.3809 19.91 24.2447 18.4873 24.834C17.0646 25.4232 15.5399 25.7266 14 25.7266C12.4601 25.7266 10.9354 25.4232 9.5127 24.834C8.08996 24.2447 6.79692 23.3809 5.70801 22.292C4.6191 21.2031 3.75533 19.91 3.16602 18.4873C2.57677 17.0646 2.27344 15.5399 2.27344 14C2.27344 10.8899 3.50885 7.90716 5.70801 5.70801C7.90716 3.50885 10.8899 2.27344 14 2.27344Z" stroke="#0A0836" stroke-width="1.5" stroke-linecap="round" stroke-linejoin="round"/>
<path d="M10.5236 12.0179C10.5236 8.30393 16.941 8.30393 16.941 12.0179C16.941 14.8213 12.7485 17.2385 10.5236 18.7677C10.5236 18.7677 14.6952 18.1717 17.4764 18.7677" stroke="#0A0A0A" stroke-width="1.5" stroke-linecap="round" stroke-linejoin="round"/>
</svg>
