<svg width="44" height="44" viewBox="0 0 44 44" fill="none" xmlns="http://www.w3.org/2000/svg">
<path opacity="0.7" d="M21.9375 0C17.5987 0 13.3573 1.28661 9.74969 3.69714C6.14208 6.10766 3.3303 9.53383 1.6699 13.5424C0.00950518 17.5509 -0.42493 21.9618 0.421533 26.2173C1.268 30.4728 3.35734 34.3816 6.42535 37.4497C9.49337 40.5177 13.4023 42.607 17.6577 43.4535C21.9132 44.2999 26.3241 43.8655 30.3326 42.2051C34.3412 40.5447 37.7673 37.7329 40.1779 34.1253C42.5884 30.5177 43.875 26.2763 43.875 21.9375C43.8689 16.1212 41.5556 10.5449 37.4429 6.43213C33.3301 2.31938 27.7538 0.00614212 21.9375 0ZM21.9375 40.5C18.2662 40.5 14.6773 39.4113 11.6247 37.3717C8.57215 35.332 6.19295 32.4329 4.788 29.0411C3.38304 25.6492 3.01544 21.9169 3.73168 18.3161C4.44792 14.7154 6.21583 11.4078 8.81184 8.81183C11.4079 6.21582 14.7154 4.44791 18.3161 3.73167C21.9169 3.01543 25.6492 3.38303 29.0411 4.78799C32.4329 6.19294 35.332 8.57214 37.3717 11.6247C39.4113 14.6773 40.5 18.2662 40.5 21.9375C40.4944 26.8589 38.5369 31.5771 35.057 35.057C31.5771 38.5369 26.8589 40.4944 21.9375 40.5ZM28.1939 20.7436C28.3508 20.9003 28.4753 21.0864 28.5602 21.2913C28.6451 21.4961 28.6888 21.7157 28.6888 21.9375C28.6888 22.1593 28.6451 22.3789 28.5602 22.5837C28.4753 22.7886 28.3508 22.9747 28.1939 23.1314L19.7564 31.5689C19.5996 31.7257 19.4135 31.8501 19.2086 31.9349C19.0038 32.0198 18.7842 32.0634 18.5625 32.0634C18.3408 32.0634 18.1212 32.0198 17.9164 31.9349C17.7115 31.8501 17.5254 31.7257 17.3686 31.5689C17.2118 31.4121 17.0874 31.226 17.0026 31.0211C16.9177 30.8163 16.8741 30.5967 16.8741 30.375C16.8741 30.1533 16.9177 29.9337 17.0026 29.7289C17.0874 29.524 17.2118 29.3379 17.3686 29.1811L24.6143 21.9375L17.3686 14.6939C17.052 14.3773 16.8741 13.9478 16.8741 13.5C16.8741 13.0522 17.052 12.6227 17.3686 12.3061C17.6852 11.9894 18.1147 11.8116 18.5625 11.8116C19.0103 11.8116 19.4398 11.9894 19.7564 12.3061L28.1939 20.7436Z" fill="white"/>
</svg>
