<svg width="28" height="28" viewBox="0 0 28 28" fill="none" xmlns="http://www.w3.org/2000/svg">
<path d="M14.0003 2.15332C17.1199 2.15339 20.1107 3.40278 22.3147 5.625C24.5186 7.84715 25.7552 10.8601 25.7552 14C25.7552 15.5548 25.4518 17.0945 24.8616 18.5312C24.2713 19.9681 23.406 21.2747 22.3147 22.375C21.2234 23.4753 19.9269 24.3485 18.5003 24.9443C17.0738 25.54 15.5446 25.8466 14.0003 25.8467C12.4557 25.8467 10.926 25.5402 9.4993 24.9443C8.07277 24.3486 6.77706 23.4752 5.68582 22.375C4.59451 21.2747 3.72825 19.9681 3.13797 18.5312C2.5478 17.0945 2.24442 15.5547 2.24442 14C2.24442 10.8601 3.48191 7.84715 5.68582 5.625C7.8899 3.40289 10.8807 2.15332 14.0003 2.15332Z" stroke="#0A0836" stroke-width="1.5" stroke-linecap="round" stroke-linejoin="round"/>
<path d="M10.9429 11.8979C10.9429 9.11086 17.0571 9.11086 17.0571 11.8979C17.0571 11.8979 17.0571 14.0005 14 14.0005C17.0571 14.0005 17.0571 16.1031 17.0571 16.1031C17.0571 18.8901 10.9429 18.8901 10.9429 16.1031" stroke="#0A0A0A" stroke-width="1.5" stroke-linecap="round" stroke-linejoin="round"/>
</svg>
